<?xml version="1.0" standalone="no"?>
<!DOCTYPE svg PUBLIC "-//W3C//DTD SVG 20010904//EN"
 "http://www.w3.org/TR/2001/REC-SVG-20010904/DTD/svg10.dtd">
<svg version="1.0" xmlns="http://www.w3.org/2000/svg"
 width="540.000000pt" height="540.000000pt" viewBox="0 0 540.000000 540.000000"
 preserveAspectRatio="xMidYMid meet">

<g transform="translate(0.000000,540.000000) scale(0.100000,-0.100000)"
fill="#000000" stroke="none">
<path d="M280 5161 c0 -5 5 -13 10 -16 6 -3 10 -2 10 4 0 5 -4 13 -10 16 -5 3
-10 2 -10 -4z"/>
<path d="M238 5143 c-10 -2 -18 -9 -18 -14 0 -5 -10 -9 -22 -9 -22 -1 -22 -1
-5 -14 15 -12 16 -18 7 -35 -6 -12 -19 -21 -29 -21 -27 0 -35 -57 -9 -66 21
-6 23 -19 6 -30 -7 -5 -8 -3 -3 5 5 9 2 12 -11 9 -11 -2 -19 -10 -20 -18 -3
-44 -5 -50 -19 -50 -21 0 -19 -27 3 -32 22 -6 26 -42 6 -59 -18 -15 -18 -30 1
-23 8 4 15 2 15 -4 0 -6 -14 -13 -31 -17 -23 -5 -28 -10 -20 -18 9 -9 14 -8
21 3 8 12 10 11 10 -6 0 -12 -7 -24 -15 -28 -10 -3 -15 -17 -14 -38 2 -44 -7
-117 -15 -125 -3 -4 -12 -1 -18 5 -17 17 -38 15 -38 -3 0 -8 6 -15 13 -15 7 0
21 -6 31 -13 13 -10 15 -18 7 -37 -5 -14 -10 -21 -10 -16 -1 5 -8 3 -16 -4 -8
-6 -20 -8 -27 -4 -10 6 -9 3 1 -9 7 -9 23 -18 35 -18 17 -1 18 -2 3 -6 -14 -4
-17 -13 -15 -44 1 -21 5 -39 8 -39 4 0 7 -19 8 -42 0 -30 -2 -37 -7 -23 -8 19
-8 19 -19 -2 -10 -18 -9 -23 8 -28 11 -3 20 -10 20 -15 0 -5 -7 -7 -15 -4 -15
6 -21 -7 -8 -20 14 -13 13 -47 -2 -52 -8 -4 -15 -11 -15 -16 0 -6 6 -8 14 -5
8 3 17 -1 20 -9 4 -11 -1 -13 -22 -8 l-27 5 23 -20 c12 -11 18 -22 13 -25 -5
-3 -12 2 -15 11 -5 12 -10 13 -18 5 -18 -18 -1 -44 24 -37 17 5 19 4 9 -4 -11
-7 -12 -13 -4 -23 8 -10 8 -18 -1 -30 -7 -10 -16 -15 -19 -11 -4 3 -7 1 -7 -6
0 -9 9 -12 27 -8 28 5 28 5 7 -12 -11 -9 -19 -22 -16 -29 5 -16 -15 -16 -21 1
-3 6 -6 -878 -6 -1966 l-1 -1977 1540 0 1540 0 0 35 c0 26 4 33 14 29 20 -8
56 14 50 29 -2 7 4 24 15 38 12 13 24 29 29 34 5 6 7 15 5 21 -2 6 7 16 19 23
20 10 18 11 -17 5 -38 -5 -39 -5 -20 10 11 8 30 16 43 16 12 0 22 6 22 14 0 8
6 17 13 19 7 3 5 6 -5 6 -10 1 -18 6 -18 12 0 7 12 10 30 7 40 -6 39 7 -2 18
-18 5 -32 17 -34 27 -2 13 2 17 12 13 19 -7 18 4 -3 20 -16 12 -16 13 9 14 29
0 45 15 27 25 -7 5 0 14 18 26 15 10 28 24 28 31 0 18 23 40 34 33 6 -3 14 3
20 12 6 10 11 14 11 9 0 -5 7 -3 16 5 13 10 17 10 24 -1 6 -10 14 -7 32 13 26
28 68 28 68 1 0 -8 7 -14 16 -14 11 0 15 6 12 17 -4 14 2 18 28 19 18 0 31 -3
29 -7 -6 -9 26 -21 34 -13 3 4 0 9 -7 11 -6 3 -10 9 -6 14 3 5 12 2 20 -6 9
-8 20 -13 25 -10 5 4 9 1 9 -6 0 -8 3 -9 13 0 8 6 17 8 21 4 4 -4 4 0 0 10 -9
23 5 21 34 -5 20 -18 24 -19 19 -6 -5 14 4 23 35 38 50 24 54 25 38 5 -8 -9
-8 -15 -2 -15 6 0 14 9 17 20 3 11 13 20 20 20 9 0 12 6 8 17 -5 13 -2 15 15
11 23 -6 33 17 11 24 -6 2 2 10 18 18 51 25 55 31 36 45 -10 8 -14 17 -10 21
4 5 12 2 17 -5 8 -15 40 -8 40 8 0 5 -11 12 -25 15 -14 4 -25 11 -25 17 0 6 4
7 10 4 5 -3 7 0 4 8 -3 9 8 25 30 42 20 15 36 34 36 41 0 8 7 14 15 14 8 0 15
-7 15 -15 0 -8 5 -15 11 -15 7 0 5 10 -5 25 -9 14 -15 25 -14 26 2 0 11 2 21
4 26 5 31 11 23 32 -7 17 -8 17 -17 1 -8 -15 -13 -15 -44 -3 -23 10 -36 11
-40 4 -4 -6 2 -13 14 -16 12 -3 21 -12 21 -19 0 -20 -17 -17 -37 5 -9 11 -22
17 -29 14 -8 -3 -14 0 -14 6 0 6 4 11 9 11 5 0 7 9 4 20 -3 11 -10 20 -15 20
-5 0 -8 -6 -6 -12 3 -7 -1 -18 -8 -25 -16 -16 -28 -17 -18 -1 29 47 0 81 -83
96 -26 6 -39 10 -29 11 20 1 20 1 1 15 -14 10 -25 11 -37 5 -12 -6 -24 -5 -37
3 -15 9 -23 9 -35 -1 -11 -9 -16 -10 -16 -2 0 6 5 11 10 11 6 0 10 9 10 20 0
12 -5 17 -13 14 -8 -3 -26 10 -41 30 -15 20 -21 33 -14 31 8 -3 22 2 33 10 19
16 19 16 -5 11 -37 -8 -70 3 -63 21 3 8 12 12 20 9 20 -8 64 4 57 15 -11 18
24 8 37 -11 12 -16 16 -17 27 -5 11 12 10 15 -3 15 -8 0 -15 5 -15 11 0 7 9 9
23 6 21 -6 21 -5 3 8 -11 8 -16 21 -13 30 7 17 -11 20 -33 4 -13 -9 -12 -10 3
-5 9 3 17 1 17 -4 0 -6 -14 -10 -31 -10 -23 0 -30 4 -26 14 5 12 2 12 -20 1
-15 -8 -31 -11 -37 -8 -5 4 -1 10 10 14 17 7 17 8 -3 8 -16 1 -23 7 -23 21 0
11 -6 20 -14 20 -8 0 -20 13 -27 29 -7 16 -16 28 -20 25 -10 -6 -69 48 -69 63
0 7 -5 13 -11 13 -6 0 -9 -7 -6 -15 4 -8 2 -17 -3 -20 -6 -4 -10 1 -10 10 0 9
-7 27 -17 41 -12 19 -18 22 -24 12 -4 -7 -12 -9 -16 -4 -4 4 0 13 10 21 14 10
15 14 4 18 -16 6 -29 55 -17 62 5 3 10 0 12 -7 3 -9 6 -9 12 0 4 7 2 12 -3 12
-6 0 -11 9 -11 21 0 12 -4 17 -11 13 -6 -3 -3 8 5 25 9 17 16 34 15 38 -3 21
2 33 15 33 17 0 28 71 12 83 -7 6 -4 7 7 3 12 -4 20 1 25 13 15 39 144 161
170 161 6 0 9 7 6 15 -4 9 0 15 10 15 9 0 16 7 16 15 0 8 9 20 20 27 26 16 26
32 1 25 -15 -3 -21 1 -24 17 -4 21 -4 21 -12 -1 -9 -27 -25 -31 -23 -5 3 43
-1 50 -34 47 -40 -3 -59 6 -32 16 17 7 17 8 2 8 -10 1 -18 7 -18 15 0 7 -11
25 -25 40 -13 15 -29 35 -35 46 -7 13 -16 17 -28 13 -15 -6 -16 -5 -2 12 10
12 11 16 2 11 -16 -10 -50 27 -59 63 -3 14 -9 31 -13 36 -4 6 -8 30 -9 54 0
28 -7 48 -17 56 -13 9 -14 14 -4 20 7 4 16 2 21 -6 5 -8 9 -9 9 -4 0 6 -4 16
-9 24 -5 7 -5 27 -1 42 5 17 5 29 -1 29 -5 0 -9 7 -9 15 0 8 -7 15 -15 15 -8
0 -15 -7 -15 -15 0 -8 -5 -15 -10 -15 -6 0 -8 11 -4 25 4 15 2 25 -5 25 -6 0
-11 6 -11 13 0 21 -68 89 -81 81 -7 -4 -10 -2 -7 7 3 8 11 13 17 12 14 -4 15
14 1 22 -20 13 -10 27 15 21 14 -4 25 -2 25 4 0 5 -6 10 -14 10 -8 0 -17 14
-21 30 -7 32 -14 37 -33 18 -8 -8 -15 -8 -25 0 -9 8 -17 8 -24 1 -8 -8 -13 -7
-18 1 -4 7 -2 16 5 20 9 6 7 11 -8 19 -11 6 -26 27 -33 46 -12 33 -29 47 -29
25 0 -5 -4 -10 -10 -10 -22 0 -8 21 23 34 17 8 26 15 19 15 -14 1 -100 61 -87
61 5 0 0 6 -11 14 -16 12 -22 12 -34 2 -24 -21 -39 -9 -33 28 3 20 1 36 -6 40
-6 4 -11 17 -11 30 0 14 -10 28 -25 36 -17 9 -22 17 -16 28 5 8 6 23 4 33 -3
11 0 19 6 19 6 0 11 7 11 15 0 8 -4 15 -10 15 -5 0 -10 7 -10 16 0 9 5 12 12
8 6 -4 8 -3 5 4 -11 17 4 43 29 53 15 5 24 17 24 31 1 22 1 22 15 4 18 -24 45
-14 38 14 -4 16 -2 19 11 14 11 -4 16 -1 16 10 0 9 6 16 14 16 10 0 12 7 8 22
-5 20 -6 20 -12 3 -6 -18 -7 -18 -14 0 -5 13 -2 23 9 31 13 10 14 14 3 20 -7
5 -15 9 -18 9 -3 0 -14 6 -25 12 l-20 12 20 15 c11 8 26 16 33 16 15 0 16 -16
1 -25 -13 -9 19 -34 44 -35 23 0 22 8 -5 31 l-23 18 21 1 c27 0 51 26 32 33
-8 3 -5 6 6 6 10 1 26 -8 36 -19 13 -15 22 -17 46 -10 l29 8 -26 1 c-27 1 -57
26 -45 38 3 3 6 1 6 -5 0 -24 26 -10 53 28 16 22 35 40 44 40 13 0 13 -3 3
-15 -10 -12 -10 -15 1 -15 8 0 19 4 25 8 16 10 26 60 13 67 -6 5 -4 12 8 20
10 7 15 17 11 21 -4 4 -14 1 -23 -6 -12 -10 -15 -10 -15 3 0 9 5 19 10 22 15
9 12 25 -5 25 -9 0 -15 9 -15 24 0 13 -5 26 -11 28 -7 2 -5 11 7 23 16 16 16
18 2 13 -24 -10 -44 17 -28 37 11 13 8 21 -17 48 -17 18 -28 38 -26 45 3 8 -1
10 -13 5 -14 -5 -16 -3 -11 11 10 26 -11 60 -28 46 -9 -8 -14 -7 -19 5 -8 21
-30 19 -22 -2 5 -14 2 -13 -11 3 -10 12 -35 25 -55 28 -40 7 -46 14 -26 34 8
8 9 12 1 12 -6 0 -20 -11 -31 -25 -11 -13 -22 -22 -25 -18 -4 3 -13 1 -20 -5
-8 -7 -17 -9 -21 -5 -4 4 -11 1 -16 -7 -5 -8 -15 -15 -22 -15 -7 -1 -12 -6
-10 -13 1 -7 -4 -12 -10 -12 -14 -1 -48 -67 -48 -93 0 -9 -6 -17 -14 -17 -8 0
-16 -7 -20 -15 -3 -8 -1 -15 4 -15 6 0 10 -4 10 -9 0 -5 -10 -7 -21 -4 -18 5
-20 3 -14 -16 4 -13 2 -21 -5 -21 -6 0 -8 -4 -5 -10 3 -5 -1 -10 -10 -10 -9 0
-13 -5 -9 -11 3 -6 18 -9 33 -6 27 6 60 -6 45 -16 -5 -3 -25 -8 -45 -11 -20
-3 -43 -8 -52 -12 -18 -7 -23 -24 -7 -24 6 0 10 4 10 9 0 4 17 11 37 14 48 8
96 -11 89 -35 -2 -10 0 -18 5 -18 5 0 9 -7 9 -16 0 -9 9 -18 20 -21 11 -3 20
-9 20 -14 0 -5 5 -9 11 -9 6 0 17 -7 25 -15 14 -13 14 -15 -1 -15 -12 0 -15
-5 -11 -17 4 -12 0 -10 -12 5 -12 15 -24 21 -35 16 -10 -3 -17 -1 -17 5 0 6
-4 11 -10 11 -14 0 -12 -27 3 -33 6 -3 -4 -5 -23 -5 -19 0 -29 2 -22 5 6 2 12
12 12 20 0 12 -3 13 -14 4 -19 -16 -43 -4 -50 24 -4 16 -11 22 -21 19 -17 -7
-19 4 -5 26 9 13 10 13 11 0 0 -10 3 -8 9 5 14 32 12 34 -25 22 -19 -6 -35
-17 -35 -25 0 -9 -6 -12 -16 -8 -9 3 -20 6 -26 6 -6 0 -8 7 -4 15 3 9 0 15
-10 15 -8 0 -12 -4 -9 -10 4 -6 -5 -10 -22 -9 -17 1 -21 3 -10 6 24 6 21 20
-5 26 -17 5 -19 9 -9 21 10 12 9 14 -10 9 -19 -5 -20 -4 -10 15 16 29 14 35
-10 29 -16 -4 -18 -3 -9 8 6 8 17 12 23 10 7 -3 20 7 30 20 16 22 16 25 2 25
-9 0 -14 4 -11 9 3 5 -1 11 -9 15 -8 3 -15 10 -15 16 0 6 4 9 9 5 5 -3 12 -1
16 5 4 6 11 8 16 5 5 -4 9 2 9 12 0 25 -47 92 -73 104 -31 14 -62 33 -81 48
-13 11 -16 11 -16 -2 0 -18 -27 -30 -33 -14 -3 9 -10 9 -31 -1 -23 -10 -27
-17 -22 -37 5 -18 2 -27 -9 -32 -9 -3 -14 -12 -11 -20 3 -8 1 -23 -4 -34 -8
-15 -7 -19 5 -19 27 0 16 -18 -16 -25 -24 -6 -28 -9 -18 -17 11 -7 11 -11 1
-15 -6 -2 -12 -13 -12 -24 0 -24 -9 -24 -26 -1 -13 16 -13 16 -15 -3 -1 -11
-1 -26 0 -32 1 -7 -7 -13 -19 -13 -11 0 -20 -4 -20 -9 0 -5 -9 -13 -20 -16
-11 -3 -20 -13 -20 -21 0 -8 -4 -14 -10 -14 -5 0 -10 6 -10 13 0 8 -4 7 -10
-3 -8 -12 -12 -13 -19 -2 -7 11 -9 11 -14 -1 -6 -16 -54 -20 -63 -6 -3 5 -17
9 -32 10 -15 0 -21 3 -14 6 18 7 15 26 -8 46 -25 21 -30 21 -30 2 0 -8 5 -15
11 -15 5 0 7 -4 4 -10 -12 -20 -25 -10 -25 19 0 36 -9 61 -22 61 -6 0 -5 -7 2
-15 7 -9 10 -19 6 -22 -11 -11 -26 19 -24 47 3 25 -2 27 -35 15 -13 -6 -16 -3
-11 9 9 22 -22 21 -36 -1 -7 -12 -13 -14 -16 -7 -6 13 -44 7 -44 -7 0 -5 -11
-9 -24 -9 -27 0 -59 -26 -51 -41 4 -5 -1 -9 -9 -9 -9 0 -13 -6 -10 -15 7 -17
-22 -49 -36 -40 -6 4 -9 3 -8 -2 4 -14 -13 -53 -23 -53 -5 0 -9 5 -9 10 0 6
-5 10 -11 10 -6 0 -9 -7 -6 -15 5 -11 0 -13 -23 -8 -22 4 -31 1 -36 -11 -8
-20 -24 -21 -24 -1 0 8 -4 15 -10 15 -5 0 -10 -4 -10 -9 0 -11 -59 -20 -66
-10 -2 5 -16 4 -30 -1 -18 -7 -35 -6 -57 4 -18 7 -43 14 -56 14 -22 1 -22 0
-5 -13 11 -8 14 -15 7 -15 -7 0 -20 8 -30 19 -21 22 -55 21 -80 -2 -20 -17
-36 -12 -45 14 -8 20 -78 14 -78 -7 0 -8 -7 -14 -15 -14 -8 0 -15 -4 -15 -10
0 -5 -9 -10 -20 -10 -10 0 -23 -7 -28 -16 -6 -11 -11 -13 -16 -5 -11 17 -26
13 -26 -8 0 -38 -79 -34 -105 6 -10 14 -22 22 -31 19 -8 -3 -14 1 -14 9 0 8
-4 15 -10 15 -5 0 -10 -5 -10 -10 0 -6 -8 -20 -19 -31 -16 -17 -19 -18 -31 -4
-10 13 -9 15 9 15 12 0 21 6 21 15 0 8 -7 15 -15 15 -8 0 -15 5 -15 10 0 6 11
8 25 4 15 -4 32 -1 41 7 13 11 15 10 12 -6 -1 -10 2 -20 8 -22 8 -2 11 8 9 29
-4 44 -4 45 -14 29 -7 -11 -13 -10 -31 7 -22 21 -22 21 -1 15 16 -4 21 -1 21
13 1 18 1 18 14 1 14 -18 14 -18 19 0 4 16 5 16 6 1 0 -10 6 -18 11 -18 11 0
13 24 4 69 -5 24 -12 31 -30 31 -14 0 -28 9 -35 21 -11 21 -8 32 23 92 5 11 7
22 4 25 -3 3 -6 -1 -6 -8 0 -7 -3 -11 -6 -7 -13 12 -46 -31 -40 -51 4 -11 2
-23 -4 -27 -6 -3 -10 4 -10 17 0 13 -7 32 -15 42 -20 26 -19 42 0 26 21 -18
31 -5 11 15 -10 10 -24 14 -36 10 -13 -4 -22 -1 -26 9 -3 9 -11 16 -16 16 -6
0 -8 -7 -4 -15 3 -9 0 -15 -10 -15 -10 0 -14 6 -10 15 3 9 -3 19 -14 25 -17 9
-20 7 -20 -10 0 -12 4 -19 9 -16 7 5 21 -14 21 -28 0 -1 -9 -2 -20 -3 -13 -1
-20 4 -20 17 0 32 -11 50 -31 50 -12 0 -19 7 -19 20 0 11 -4 20 -10 20 -5 0
-10 -9 -10 -20 0 -11 -4 -20 -10 -20 -5 0 -10 9 -10 20 0 11 -7 20 -15 20 -8
0 -15 7 -15 15 0 9 -9 15 -25 15 -14 0 -25 5 -25 11 0 5 8 9 18 8 31 -3 43 1
37 11 -4 6 -11 8 -16 5 -5 -4 -19 -3 -30 0 -17 6 -20 13 -16 43 4 37 -17 92
-36 92 -5 0 -17 -10 -27 -22 l-18 -22 -7 43 -7 43 -19 -28 c-20 -31 -26 -26
-8 7 14 27 2 80 -17 72 -9 -3 -14 2 -14 17 0 19 2 20 15 10 13 -11 15 -8 15
14 0 18 -4 25 -12 20 -8 -5 -9 -2 -5 10 4 10 10 36 13 59 4 23 13 47 20 53 13
10 12 12 -1 18 -19 7 -20 36 -1 36 32 0 18 65 -16 74 -10 2 -18 12 -18 21 0 9
4 14 9 10 12 -7 23 28 15 49 -4 12 0 16 15 16 16 0 21 6 21 25 0 19 5 25 23
25 34 0 78 73 51 84 -9 3 -12 10 -9 16 3 5 2 10 -4 10 -5 0 -12 -15 -14 -32
l-4 -33 -1 33 c-2 32 -16 44 -25 20 -3 -10 -9 -8 -24 5 -11 9 -21 16 -24 16
-2 -1 -12 -3 -21 -6z m36 -29 c9 -24 7 -27 -9 -10 -17 17 -19 26 -6 26 5 0 12
-7 15 -16z m1 -64 c3 -5 -1 -10 -10 -10 -9 0 -13 5 -10 10 3 6 8 10 10 10 2 0
7 -4 10 -10z m-65 -44 c0 -3 -4 -8 -10 -11 -5 -3 -10 -1 -10 4 0 6 5 11 10 11
6 0 10 -2 10 -4z m60 -176 c0 -5 -5 -10 -11 -10 -5 0 -7 5 -4 10 3 6 8 10 11
10 2 0 4 -4 4 -10z m-29 -89 l-4 -36 -10 33 c-6 17 -17 32 -25 32 -11 0 -12 3
-2 15 21 26 47 -1 41 -44z m109 -285 c0 -11 -19 -15 -25 -6 -3 5 1 10 9 10 9
0 16 -2 16 -4z m5 -96 c3 -5 -1 -10 -9 -10 -9 0 -16 5 -16 10 0 6 4 10 9 10 6
0 13 -4 16 -10z m5 -80 c0 -5 -2 -10 -4 -10 -3 0 -8 5 -11 10 -3 6 -1 10 4 10
6 0 11 -4 11 -10z m90 -24 c0 -3 -4 -8 -10 -11 -5 -3 -10 -1 -10 4 0 6 5 11
10 11 6 0 10 -2 10 -4z m177 -120 c-25 -26 -39 -19 -21 10 11 16 20 22 27 15
6 -6 4 -15 -6 -25z m68 -75 c3 -5 1 -12 -5 -16 -5 -3 -10 1 -10 9 0 18 6 21
15 7z m-620 -11 c3 -5 1 -10 -4 -10 -6 0 -11 5 -11 10 0 6 2 10 4 10 3 0 8 -4
11 -10z m642 -20 c-6 -16 -15 -30 -19 -30 -4 0 -2 14 3 30 6 17 15 30 19 30 5
0 3 -13 -3 -30z m1153 10 c0 -5 -5 -10 -11 -10 -5 0 -7 5 -4 10 3 6 8 10 11
10 2 0 4 -4 4 -10z m680 6 c0 -3 -4 -8 -10 -11 -5 -3 -10 -1 -10 4 0 6 5 11
10 11 6 0 10 -2 10 -4z m-820 -16 c0 -5 -7 -10 -16 -10 -8 0 -12 5 -9 10 3 6
10 10 16 10 5 0 9 -4 9 -10z m580 0 c0 -5 -7 -10 -15 -10 -8 0 -15 5 -15 10 0
6 7 10 15 10 8 0 15 -4 15 -10z m-1520 -20 c0 -5 -4 -10 -10 -10 -5 0 -10 5
-10 10 0 6 5 10 10 10 6 0 10 -4 10 -10z m1497 -16 c-3 -3 -12 -4 -19 -1 -8 3
-5 6 6 6 11 1 17 -2 13 -5z m-87 -48 c0 -2 -7 -7 -16 -10 -8 -3 -12 -2 -9 4 6
10 25 14 25 6z m667 -38 c-3 -8 -6 -5 -6 6 -1 11 2 17 5 13 3 -3 4 -12 1 -19z
m-2827 -28 c-24 -15 -36 -11 -14 4 10 8 21 12 24 10 2 -3 -2 -9 -10 -14z
m2851 -3 c-8 -8 -2 -16 21 -29 l33 -18 -30 7 c-41 9 -55 23 -42 45 6 9 15 14
20 11 5 -3 4 -10 -2 -16z m-332 -29 c11 -30 4 -36 -14 -12 -17 23 -19 34 -5
34 6 0 14 -10 19 -22z m-2519 -8 c0 -5 -2 -10 -4 -10 -3 0 -8 5 -11 10 -3 6
-1 10 4 10 6 0 11 -4 11 -10z m760 -52 c0 -13 -32 -6 -37 9 -3 7 3 9 16 6 12
-3 21 -10 21 -15z m-70 -38 c0 -5 -5 -10 -11 -10 -5 0 -7 5 -4 10 3 6 8 10 11
10 2 0 4 -4 4 -10z m2100 1 c0 -5 -9 -11 -20 -14 -12 -3 -20 0 -20 7 0 6 9 12
20 13 11 1 20 -2 20 -6z m65 -41 c-3 -5 -13 -6 -21 -3 -12 4 -13 8 -3 14 15 9
32 2 24 -11z m-2855 -71 c0 -5 -7 -9 -15 -9 -8 0 -15 7 -15 15 0 9 6 12 15 9
8 -4 15 -10 15 -15z m2957 -56 c-3 -10 -5 -4 -5 12 0 17 2 24 5 18 2 -7 2 -21
0 -30z m216 -710 c-7 -2 -19 -2 -25 0 -7 3 -2 5 12 5 14 0 19 -2 13 -5z m167
-464 c0 -5 -9 -9 -20 -9 -11 0 -20 6 -20 14 0 9 7 12 20 9 11 -3 20 -9 20 -14z
m36 -636 c-10 -10 -19 5 -10 18 6 11 8 11 12 0 2 -7 1 -15 -2 -18z m-2443
-463 c-3 -12 -8 -19 -11 -16 -5 6 5 36 12 36 2 0 2 -9 -1 -20z m2643 -37 c-10
-11 -36 -12 -36 -2 0 5 10 9 22 9 12 0 18 -3 14 -7z m174 -224 c0 -5 -4 -9
-10 -9 -5 0 -10 7 -10 16 0 8 5 12 10 9 6 -3 10 -10 10 -16z m29 -20 c-16 -10
-23 -4 -14 10 3 6 11 8 17 5 6 -4 5 -9 -3 -15z m61 2 c0 -5 10 -11 23 -14 19
-3 20 -5 5 -11 -11 -5 -24 -1 -39 13 -19 18 -20 21 -6 21 9 0 17 -4 17 -9z
m80 -111 c0 -5 -5 -10 -11 -10 -5 0 -7 5 -4 10 3 6 8 10 11 10 2 0 4 -4 4 -10z
m60 -39 c0 -19 -22 -23 -38 -7 -15 15 -14 16 11 16 15 0 27 -4 27 -9z m-614
-310 c-4 -6 -15 -11 -24 -10 -11 0 -12 3 -4 6 6 2 12 12 12 21 0 12 3 13 11 5
6 -6 8 -16 5 -22z m284 -1 c8 -5 11 -10 5 -10 -5 0 -17 5 -25 10 -8 5 -10 10
-5 10 6 0 17 -5 25 -10z m-370 -50 c0 -5 -5 -10 -11 -10 -5 0 -7 5 -4 10 3 6
8 10 11 10 2 0 4 -4 4 -10z m-33 -6 c-3 -3 -12 -4 -19 -1 -8 3 -5 6 6 6 11 1
17 -2 13 -5z m-72 -254 c3 -5 2 -10 -4 -10 -5 0 -13 5 -16 10 -3 6 -2 10 4 10
5 0 13 -4 16 -10z m-45 -82 c0 -6 -7 -7 -16 -4 -9 3 -20 6 -25 6 -6 0 -8 4 -5
9 8 12 46 2 46 -11z m-22 -43 c-6 -14 -17 -25 -25 -25 -17 0 -17 6 5 29 24 27
34 25 20 -4z m-28 -45 c0 -5 -7 -10 -16 -10 -8 0 -12 5 -9 10 3 6 10 10 16 10
5 0 9 -4 9 -10z"/>
<path d="M365 5040 c4 -6 11 -8 16 -5 14 9 11 15 -7 15 -8 0 -12 -5 -9 -10z"/>
<path d="M271 4954 c0 -11 3 -14 6 -6 3 7 2 16 -1 19 -3 4 -6 -2 -5 -13z"/>
<path d="M70 4780 c0 -5 5 -10 10 -10 6 0 10 5 10 10 0 6 -4 10 -10 10 -5 0
-10 -4 -10 -10z"/>
<path d="M60 4691 c0 -6 5 -13 10 -16 6 -3 10 1 10 9 0 9 -4 16 -10 16 -5 0
-10 -4 -10 -9z"/>
<path d="M255 4677 c-4 -10 -5 -21 -1 -24 10 -10 18 4 13 24 -4 17 -4 17 -12
0z"/>
<path d="M21 4372 c0 -7 -5 -10 -11 -7 -15 9 -12 -17 4 -38 18 -23 24 -11 15
28 -3 17 -7 24 -8 17z"/>
<path d="M672 4228 c2 -6 10 -14 16 -16 7 -2 10 2 6 12 -7 18 -28 22 -22 4z"/>
<path d="M799 4158 c0 -2 -2 -18 -5 -37 -3 -27 -2 -31 10 -22 7 6 11 22 8 36
-4 21 -10 32 -13 23z"/>
<path d="M2240 4060 c0 -5 5 -10 11 -10 5 0 7 5 4 10 -3 6 -8 10 -11 10 -2 0
-4 -4 -4 -10z"/>
<path d="M0 4030 c0 -5 5 -10 11 -10 5 0 7 5 4 10 -3 6 -8 10 -11 10 -2 0 -4
-4 -4 -10z"/>
<path d="M825 4030 c-3 -5 -1 -10 4 -10 6 0 11 5 11 10 0 6 -2 10 -4 10 -3 0
-8 -4 -11 -10z"/>
<path d="M2120 3970 c0 -5 5 -10 11 -10 5 0 7 5 4 10 -3 6 -8 10 -11 10 -2 0
-4 -4 -4 -10z"/>
<path d="M1435 3909 c-4 -6 -5 -12 -2 -15 2 -3 7 2 10 11 7 17 1 20 -8 4z"/>
<path d="M860 3830 c-8 -5 -11 -12 -7 -16 4 -4 13 -2 19 4 15 15 7 24 -12 12z"/>
<path d="M3518 3828 c-21 -17 -33 -85 -16 -91 10 -4 11 -7 1 -18 -10 -9 -13
-10 -13 -1 0 7 -4 12 -9 12 -5 0 -7 -17 -4 -39 3 -23 1 -41 -6 -45 -6 -4 -11
-13 -11 -19 0 -8 3 -7 9 2 5 8 14 10 21 6 10 -6 9 -10 -4 -17 -19 -10 -21 -34
-4 -44 7 -5 8 -3 3 7 -5 8 8 -4 28 -25 20 -21 37 -46 37 -55 0 -13 2 -13 9 -3
6 10 10 8 16 -10 l7 -23 8 25 c4 14 8 19 9 13 1 -7 8 -13 16 -13 9 0 15 -10
16 -22 1 -21 2 -21 13 5 7 15 15 24 19 21 4 -4 7 -2 7 4 0 7 5 12 10 12 6 0
10 -7 10 -15 0 -8 5 -15 10 -15 6 0 10 12 10 26 0 14 4 23 9 19 6 -3 8 -19 6
-35 -2 -17 1 -30 6 -30 5 0 9 14 9 30 0 17 5 30 10 30 6 0 10 -4 10 -10 0 -5
5 -10 10 -10 6 0 10 9 10 20 0 11 -4 20 -10 20 -5 0 -10 7 -10 15 0 8 -7 15
-16 15 -14 0 -14 -3 -4 -15 10 -12 10 -15 -4 -15 -10 0 -16 8 -16 21 0 28 -18
59 -34 59 -9 0 -12 9 -9 28 3 24 2 25 -7 7 -9 -18 -10 -17 -6 8 2 15 0 30 -5
33 -4 2 -6 11 -2 19 3 9 -1 15 -10 15 -18 0 -30 30 -21 53 4 12 0 14 -18 10
-18 -4 -20 -2 -8 6 22 15 5 24 -20 11 -18 -10 -22 -9 -27 9 -6 24 -13 26 -35
9z m-16 -170 c-9 -9 -12 -7 -12 12 0 19 3 21 12 12 9 -9 9 -15 0 -24z m67
-120 c0 -16 -2 -18 -6 -8 -3 8 -11 18 -17 22 -7 5 -4 8 7 8 11 0 17 -7 16 -22z"/>
<path d="M3315 3810 c-3 -5 -1 -10 4 -10 6 0 11 5 11 10 0 6 -2 10 -4 10 -3 0
-8 -4 -11 -10z"/>
<path d="M3290 3776 c0 -2 7 -7 16 -10 8 -3 12 -2 9 4 -6 10 -25 14 -25 6z"/>
<path d="M3195 3740 c-3 -5 -1 -10 4 -10 6 0 11 5 11 10 0 6 -2 10 -4 10 -3 0
-8 -4 -11 -10z"/>
<path d="M5385 3731 c-6 -5 -20 -11 -32 -13 -19 -3 -17 -5 12 -20 l34 -17 -1
30 c-1 33 -1 32 -13 20z"/>
<path d="M5296 3664 c-9 -23 -8 -24 14 -24 11 0 20 -5 20 -11 0 -6 -6 -9 -14
-6 -16 6 -66 -13 -66 -25 0 -5 7 -8 15 -8 7 0 18 -8 24 -17 5 -10 13 -14 17
-10 5 4 3 17 -4 27 -14 24 -7 26 14 5 9 -8 28 -13 44 -11 45 5 36 -11 -10 -18
-22 -3 -40 -11 -40 -16 0 -16 -18 -12 -37 9 -21 22 -63 37 -63 23 0 -6 6 -12
13 -15 6 -2 9 -8 5 -12 -4 -4 -14 -2 -23 5 -9 7 -18 10 -22 7 -6 -7 36 -46 50
-47 4 0 7 7 7 15 0 8 4 15 9 15 11 0 21 -25 21 -51 0 -12 4 -17 11 -14 6 4 8
14 4 24 -5 13 -4 14 7 3 10 -10 7 -18 -20 -43 -34 -32 -42 -66 -17 -75 8 -4
15 -10 15 -15 0 -5 -7 -9 -15 -9 -18 0 -20 -16 -2 -24 8 -3 6 -9 -7 -20 -19
-15 -19 -16 -2 -16 16 0 17 -2 5 -16 -8 -10 -15 -12 -17 -5 -6 18 -22 12 -22
-8 0 -11 -9 -22 -19 -26 -11 -3 -22 -14 -25 -23 -2 -9 -8 -28 -11 -41 -6 -20
-4 -23 9 -18 14 6 16 3 11 -13 -5 -14 -2 -20 9 -20 10 0 16 -9 16 -22 0 -19 2
-20 11 -8 8 12 10 9 6 -13 -3 -20 -1 -27 8 -23 8 3 16 -2 19 -10 3 -8 12 -14
20 -14 12 0 30 -33 27 -52 -1 -5 3 -8 9 -8 11 0 44 -26 69 -52 8 -10 19 -18
23 -18 5 0 8 167 8 370 0 326 -2 370 -15 370 -9 0 -18 -7 -21 -15 -5 -11 -9
-11 -19 -2 -7 6 -10 18 -8 24 3 8 -3 13 -15 13 -11 0 -23 -7 -26 -16z m59 -63
c-3 -6 -11 -8 -17 -5 -6 4 -5 9 3 15 16 10 23 4 14 -10z m25 -60 c0 -5 -11 -8
-25 -8 -29 0 -34 14 -7 20 20 4 32 0 32 -12z m0 -25 c0 -3 -4 -8 -10 -11 -5
-3 -10 -1 -10 4 0 6 5 11 10 11 6 0 10 -2 10 -4z m-100 -96 c0 -5 -5 -10 -11
-10 -5 0 -7 5 -4 10 3 6 8 10 11 10 2 0 4 -4 4 -10z m40 -70 c0 -5 -5 -10 -11
-10 -5 0 -7 5 -4 10 3 6 8 10 11 10 2 0 4 -4 4 -10z m-40 -76 c0 -8 -5 -12
-10 -9 -6 4 -8 11 -5 16 9 14 15 11 15 -7z m-10 -144 c0 -5 -4 -10 -10 -10 -5
0 -10 5 -10 10 0 6 5 10 10 10 6 0 10 -4 10 -10z"/>
<path d="M3695 3640 c3 -5 8 -10 11 -10 2 0 4 5 4 10 0 6 -5 10 -11 10 -5 0
-7 -4 -4 -10z"/>
<path d="M5217 3644 c-8 -8 3 -34 14 -34 11 0 12 27 0 34 -4 3 -11 3 -14 0z"/>
<path d="M4000 3599 c0 -5 5 -9 10 -9 6 0 12 0 15 0 14 0 8 13 -7 16 -10 1
-18 -2 -18 -7z"/>
<path d="M5180 3600 c0 -5 5 -10 11 -10 5 0 7 5 4 10 -3 6 -8 10 -11 10 -2 0
-4 -4 -4 -10z"/>
<path d="M4040 3531 c0 -25 6 -27 13 -6 4 8 2 17 -3 20 -6 4 -10 -3 -10 -14z"/>
<path d="M4014 3485 c1 -33 16 -33 16 0 0 14 -4 25 -9 25 -5 0 -8 -11 -7 -25z"/>
<path d="M4397 3496 c-4 -9 -23 -12 -68 -10 -39 2 -66 -1 -70 -8 -9 -14 -48
-18 -55 -6 -8 13 -41 9 -54 -7 -16 -19 -30 -19 -30 0 0 9 -6 12 -15 9 -11 -4
-13 -15 -10 -38 3 -17 2 -26 -2 -21 -13 16 -33 16 -33 0 0 -8 -9 -15 -19 -15
-11 0 -22 -6 -25 -12 -3 -7 -4 0 0 17 5 29 5 29 -15 11 -11 -10 -23 -27 -27
-38 -4 -15 -9 -17 -20 -7 -11 9 -14 8 -14 -5 0 -9 -5 -16 -11 -16 -6 0 -8 -7
-5 -16 9 -24 -14 -83 -31 -77 -9 3 -13 -3 -13 -20 0 -14 -5 -38 -12 -54 -25
-63 -39 -129 -38 -185 1 -27 -4 -48 -9 -48 -7 0 -7 -8 -1 -26 13 -33 13 -34
-7 -35 -11 0 -13 -3 -5 -6 17 -7 15 -23 -3 -23 -24 0 -9 -103 21 -148 14 -20
23 -41 20 -48 -3 -7 4 -14 15 -17 19 -5 42 -49 41 -79 0 -10 3 -18 9 -18 5 0
9 6 9 14 0 7 9 16 20 19 11 3 23 13 26 24 3 10 10 26 15 35 13 25 11 31 -5 25
-11 -4 -13 -1 -9 11 11 30 15 33 29 21 11 -9 16 -6 23 12 5 13 10 19 10 13 1
-6 25 -14 54 -18 72 -9 81 -11 95 -20 6 -4 12 -4 12 0 0 4 6 0 13 -11 10 -12
22 -16 38 -12 13 3 33 2 44 -2 11 -5 33 -4 49 0 20 6 35 4 50 -6 11 -8 33 -15
48 -15 26 0 27 -2 16 -20 -7 -11 -19 -20 -26 -20 -7 0 -10 -5 -7 -11 10 -16
-26 -50 -46 -44 -9 3 -20 1 -24 -5 -3 -5 -15 -10 -26 -10 -11 0 -22 -7 -25
-15 -4 -8 -14 -15 -24 -15 -11 0 -22 -4 -25 -10 -3 -5 1 -10 9 -10 9 0 16 -8
16 -19 0 -23 25 -45 41 -36 6 4 15 1 20 -6 7 -11 11 -12 17 -1 7 10 16 4 35
-21 18 -24 34 -34 51 -33 13 0 22 4 20 7 -6 10 23 19 61 19 18 0 36 -6 38 -12
4 -10 8 -10 14 -1 5 6 17 11 28 10 14 -1 20 4 20 20 0 11 4 25 9 30 5 4 6 3 2
-4 -12 -22 18 -15 32 7 16 27 40 25 45 -2 l4 -23 8 23 c7 20 9 21 20 6 9 -13
22 -16 59 -12 37 5 46 3 42 -8 -3 -7 -1 -16 4 -19 6 -4 10 -1 10 4 0 6 5 11
10 11 6 0 10 -7 10 -15 0 -8 5 -15 10 -15 6 0 10 7 10 15 0 13 4 13 23 3 12
-7 25 -17 28 -22 8 -11 49 2 49 16 0 6 10 8 25 4 14 -4 25 -2 25 4 0 5 -4 10
-10 10 -5 0 -10 7 -10 15 0 21 9 19 31 -7 10 -13 18 -18 19 -11 0 6 -5 13 -12
15 -7 3 -8 10 -4 17 7 11 10 11 17 0 6 -10 10 -9 15 6 4 11 15 29 24 40 20 24
34 59 20 50 -6 -4 -10 5 -10 20 0 15 4 24 10 20 6 -3 10 -2 10 4 0 5 -4 13
-10 16 -5 3 -10 1 -10 -4 0 -6 -4 -11 -10 -11 -5 0 -10 6 -10 14 0 7 -7 19
-15 26 -12 10 -15 9 -15 -6 -1 -15 -4 -13 -16 9 -8 15 -20 27 -26 27 -7 0 -7
-4 1 -14 8 -10 9 -16 1 -21 -5 -3 -10 -2 -10 2 0 14 -83 13 -105 0 -11 -7 -40
-12 -65 -11 -25 0 -58 -3 -73 -9 -23 -8 -31 -6 -42 9 -12 17 -16 17 -40 4 -18
-9 -29 -11 -33 -4 -11 17 -45 12 -63 -9 -12 -16 -22 -18 -45 -12 -16 5 -32 8
-36 7 -5 -1 -8 5 -8 13 0 8 -9 15 -20 15 -13 0 -18 5 -14 15 3 8 9 13 13 12 7
-2 26 6 130 57 24 11 53 31 65 43 11 13 27 23 34 23 6 0 12 7 12 15 0 8 11 17
25 21 14 3 25 12 25 20 0 8 7 14 15 14 8 0 15 9 15 19 0 11 6 21 13 24 7 2 8
8 3 13 -5 5 -11 4 -13 -3 -7 -19 -22 -16 -41 6 -10 11 -26 21 -37 23 -25 4
-59 39 -75 78 -7 17 -19 30 -26 30 -8 0 -14 7 -14 15 0 8 -6 12 -13 9 -18 -6
-42 66 -33 99 5 23 9 25 48 20 26 -3 53 -15 69 -29 14 -13 32 -24 40 -24 7 0
27 -7 43 -15 16 -9 37 -13 48 -10 17 6 16 8 -7 39 -19 25 -22 35 -13 44 8 8 8
12 1 12 -6 0 -14 20 -17 45 -4 25 -11 45 -17 45 -5 0 -9 9 -9 20 0 11 -7 20
-15 20 -9 0 -20 12 -25 26 -6 14 -19 28 -31 31 -11 3 -18 11 -15 19 3 8 -12
17 -45 25 -27 7 -49 16 -49 20 0 10 -59 29 -92 29 -16 0 -42 7 -58 15 -23 12
-29 12 -33 1z m-435 -168 c-7 -7 -12 -8 -12 -2 0 6 3 14 7 17 3 4 9 5 12 2 2
-3 -1 -11 -7 -17z m-122 -572 c0 -3 -4 -8 -10 -11 -5 -3 -10 -1 -10 4 0 6 5
11 10 11 6 0 10 -2 10 -4z m645 -156 c-3 -5 -10 -10 -16 -10 -5 0 -9 5 -9 10
0 6 7 10 16 10 8 0 12 -4 9 -10z m602 -32 c-3 -7 -5 -2 -5 12 0 14 2 19 5 13
2 -7 2 -19 0 -25z m-227 -102 c0 -3 -4 -8 -10 -11 -5 -3 -10 -1 -10 4 0 6 5
11 10 11 6 0 10 -2 10 -4z m-290 -10 c0 -3 -4 -8 -10 -11 -5 -3 -10 -1 -10 4
0 6 5 11 10 11 6 0 10 -2 10 -4z m327 -12 c-3 -3 -12 -4 -19 -1 -8 3 -5 6 6 6
11 1 17 -2 13 -5z m-337 -24 c0 -5 -7 -10 -15 -10 -8 0 -15 5 -15 10 0 6 7 10
15 10 8 0 15 -4 15 -10z"/>
<path d="M3930 3490 c0 -5 5 -10 10 -10 6 0 10 5 10 10 0 6 -4 10 -10 10 -5 0
-10 -4 -10 -10z"/>
<path d="M2953 3180 c-1 -11 2 -20 8 -20 5 0 9 9 9 20 0 11 -4 20 -8 20 -4 0
-8 -9 -9 -20z"/>
<path d="M3402 2588 c-14 -14 -16 -28 -3 -28 9 0 24 30 18 36 -2 2 -9 -2 -15
-8z"/>
<path d="M4665 2420 c4 -6 11 -8 16 -5 14 9 11 15 -7 15 -8 0 -12 -5 -9 -10z"/>
<path d="M4356 2387 c3 -10 9 -15 12 -12 3 3 0 11 -7 18 -10 9 -11 8 -5 -6z"/>
<path d="M4905 2380 c-3 -5 -2 -10 4 -10 5 0 18 -3 28 -7 17 -6 17 -6 1 10
-19 20 -24 21 -33 7z"/>
<path d="M4500 2369 c0 -5 5 -7 10 -4 6 3 10 8 10 11 0 2 -4 4 -10 4 -5 0 -10
-5 -10 -11z"/>
<path d="M4970 2361 c0 -6 5 -13 10 -16 6 -3 10 1 10 9 0 9 -4 16 -10 16 -5 0
-10 -4 -10 -9z"/>
<path d="M4060 1968 c0 -7 5 -20 10 -28 8 -12 13 -13 30 -2 24 15 28 -2 5 -25
-18 -18 -12 -31 7 -16 21 17 78 14 78 -4 0 -13 3 -13 15 -3 10 9 15 9 15 1 0
-6 5 -11 11 -11 14 0 39 25 39 39 0 15 -17 14 -22 -1 -3 -7 -12 -4 -26 10 -13
13 -27 20 -32 17 -5 -3 -11 -1 -15 5 -4 6 -11 8 -16 4 -6 -3 -17 2 -24 12 -9
11 -14 14 -15 7 0 -7 -12 -13 -27 -13 -22 0 -25 2 -13 10 13 8 12 10 -2 10
-10 0 -18 -6 -18 -12z"/>
<path d="M3955 1687 c-11 -13 -8 -57 4 -57 4 0 8 16 8 35 0 19 -1 35 -1 35 -1
-1 -6 -6 -11 -13z"/>
<path d="M3988 1694 c-22 -21 19 -63 60 -62 35 1 34 18 -1 18 -29 0 -44 11
-48 33 -2 11 -7 15 -11 11z"/>
<path d="M4040 1601 c0 -6 4 -13 10 -16 6 -3 7 1 4 9 -7 18 -14 21 -14 7z"/>
<path d="M3810 1314 c0 -8 5 -12 10 -9 6 3 10 10 10 16 0 5 -4 9 -10 9 -5 0
-10 -7 -10 -16z"/>
<path d="M3845 1290 c-3 -5 -1 -10 4 -10 6 0 11 5 11 10 0 6 -2 10 -4 10 -3 0
-8 -4 -11 -10z"/>
<path d="M5392 1190 c0 -14 2 -19 5 -12 2 6 2 18 0 25 -3 6 -5 1 -5 -13z"/>
<path d="M3710 1156 c0 -2 7 -6 15 -10 8 -3 15 -1 15 4 0 6 -7 10 -15 10 -8 0
-15 -2 -15 -4z"/>
<path d="M5383 849 c-4 -12 -11 -18 -20 -15 -19 8 -55 -27 -48 -45 4 -11 -2
-15 -22 -14 -23 0 -29 -6 -38 -38 -6 -21 -13 -36 -16 -33 -2 3 -3 -14 -1 -37
2 -31 1 -38 -7 -27 -9 12 -11 11 -11 -8 0 -13 -11 -33 -23 -45 -13 -12 -22
-27 -20 -34 6 -17 -26 -75 -37 -68 -6 4 -10 1 -10 -4 0 -6 7 -11 15 -11 19 0
19 -14 0 -30 -11 -9 -13 -15 -5 -20 9 -5 8 -13 -1 -28 -10 -15 -10 -26 -2 -44
12 -26 6 -81 -7 -73 -18 11 -30 -27 -32 -108 -1 -59 -6 -87 -14 -87 -7 0 -10
-8 -7 -20 3 -11 12 -20 19 -20 8 0 14 -9 14 -20 0 -19 7 -20 145 -20 l145 0 0
435 c0 239 -3 435 -6 435 -3 0 -8 -9 -11 -21z"/>
<path d="M3490 529 c0 -5 5 -7 10 -4 6 3 10 8 10 11 0 2 -4 4 -10 4 -5 0 -10
-5 -10 -11z"/>
<path d="M3330 459 c0 -5 5 -7 10 -4 6 3 10 8 10 11 0 2 -4 4 -10 4 -5 0 -10
-5 -10 -11z"/>
<path d="M3302 418 c-14 -14 -16 -28 -3 -28 5 0 11 9 14 20 6 23 5 24 -11 8z"/>
</g>
</svg>
